<mxfile host="app.diagrams.net" modified="2021-12-02T23:50:22.247Z" agent="5.0 (Windows NT 10.0; Win64; x64) AppleWebKit/537.36 (KHTML, like Gecko) Chrome/96.0.4664.45 Safari/537.36" etag="mVMiTqsGvzz7sz9_59i1" version="15.8.8" type="github">
  <diagram id="ZXG2UVJpFGd10iMGx-tj" name="Page-1">
    <mxGraphModel dx="1279" dy="702" grid="1" gridSize="10" guides="1" tooltips="1" connect="1" arrows="1" fold="1" page="1" pageScale="1" pageWidth="827" pageHeight="583" math="0" shadow="0">
      <root>
        <mxCell id="0" />
        <mxCell id="1" parent="0" />
        <mxCell id="EYOzeWgw2-WNXVN7l0ou-1" value="1" style="ellipse;whiteSpace=wrap;html=1;aspect=fixed;" vertex="1" parent="1">
          <mxGeometry x="120" y="170" width="30" height="30" as="geometry" />
        </mxCell>
        <mxCell id="EYOzeWgw2-WNXVN7l0ou-2" value="2" style="ellipse;whiteSpace=wrap;html=1;aspect=fixed;" vertex="1" parent="1">
          <mxGeometry x="200" y="90" width="30" height="30" as="geometry" />
        </mxCell>
        <mxCell id="EYOzeWgw2-WNXVN7l0ou-3" value="3" style="ellipse;whiteSpace=wrap;html=1;aspect=fixed;" vertex="1" parent="1">
          <mxGeometry x="300" y="160" width="30" height="30" as="geometry" />
        </mxCell>
        <mxCell id="EYOzeWgw2-WNXVN7l0ou-4" value="4" style="ellipse;whiteSpace=wrap;html=1;aspect=fixed;" vertex="1" parent="1">
          <mxGeometry x="260" y="210" width="30" height="30" as="geometry" />
        </mxCell>
        <mxCell id="EYOzeWgw2-WNXVN7l0ou-5" value="5" style="ellipse;whiteSpace=wrap;html=1;aspect=fixed;" vertex="1" parent="1">
          <mxGeometry x="320" y="90" width="30" height="30" as="geometry" />
        </mxCell>
        <mxCell id="EYOzeWgw2-WNXVN7l0ou-6" value="8" style="ellipse;whiteSpace=wrap;html=1;aspect=fixed;" vertex="1" parent="1">
          <mxGeometry x="410" y="150" width="30" height="30" as="geometry" />
        </mxCell>
        <mxCell id="EYOzeWgw2-WNXVN7l0ou-7" value="9" style="ellipse;whiteSpace=wrap;html=1;aspect=fixed;" vertex="1" parent="1">
          <mxGeometry x="490" y="90" width="30" height="30" as="geometry" />
        </mxCell>
        <mxCell id="EYOzeWgw2-WNXVN7l0ou-8" value="7" style="ellipse;whiteSpace=wrap;html=1;aspect=fixed;" vertex="1" parent="1">
          <mxGeometry x="410" y="30" width="30" height="30" as="geometry" />
        </mxCell>
        <mxCell id="EYOzeWgw2-WNXVN7l0ou-9" value="11" style="ellipse;whiteSpace=wrap;html=1;aspect=fixed;" vertex="1" parent="1">
          <mxGeometry x="560" y="262" width="30" height="30" as="geometry" />
        </mxCell>
        <mxCell id="EYOzeWgw2-WNXVN7l0ou-10" value="6" style="ellipse;whiteSpace=wrap;html=1;aspect=fixed;" vertex="1" parent="1">
          <mxGeometry x="360" y="210" width="30" height="30" as="geometry" />
        </mxCell>
        <mxCell id="EYOzeWgw2-WNXVN7l0ou-11" value="10" style="ellipse;whiteSpace=wrap;html=1;aspect=fixed;" vertex="1" parent="1">
          <mxGeometry x="490" y="210" width="30" height="30" as="geometry" />
        </mxCell>
        <mxCell id="EYOzeWgw2-WNXVN7l0ou-12" value="" style="endArrow=none;html=1;rounded=0;" edge="1" parent="1" source="EYOzeWgw2-WNXVN7l0ou-1" target="EYOzeWgw2-WNXVN7l0ou-2">
          <mxGeometry width="50" height="50" relative="1" as="geometry">
            <mxPoint x="390" y="380" as="sourcePoint" />
            <mxPoint x="440" y="330" as="targetPoint" />
          </mxGeometry>
        </mxCell>
        <mxCell id="EYOzeWgw2-WNXVN7l0ou-14" value="" style="endArrow=none;html=1;rounded=0;" edge="1" parent="1" source="EYOzeWgw2-WNXVN7l0ou-2" target="EYOzeWgw2-WNXVN7l0ou-5">
          <mxGeometry width="50" height="50" relative="1" as="geometry">
            <mxPoint x="155.60660171779818" y="184.39339828220182" as="sourcePoint" />
            <mxPoint x="214.39339828220182" y="125.60660171779818" as="targetPoint" />
          </mxGeometry>
        </mxCell>
        <mxCell id="EYOzeWgw2-WNXVN7l0ou-15" value="" style="endArrow=none;html=1;rounded=0;" edge="1" parent="1" source="EYOzeWgw2-WNXVN7l0ou-5" target="EYOzeWgw2-WNXVN7l0ou-8">
          <mxGeometry width="50" height="50" relative="1" as="geometry">
            <mxPoint x="410" y="90" as="sourcePoint" />
            <mxPoint x="224.39339828220182" y="135.60660171779818" as="targetPoint" />
          </mxGeometry>
        </mxCell>
        <mxCell id="EYOzeWgw2-WNXVN7l0ou-16" value="" style="endArrow=none;html=1;rounded=0;" edge="1" parent="1" source="EYOzeWgw2-WNXVN7l0ou-7" target="EYOzeWgw2-WNXVN7l0ou-8">
          <mxGeometry width="50" height="50" relative="1" as="geometry">
            <mxPoint x="175.60660171779818" y="204.39339828220182" as="sourcePoint" />
            <mxPoint x="234.39339828220182" y="145.60660171779818" as="targetPoint" />
          </mxGeometry>
        </mxCell>
        <mxCell id="EYOzeWgw2-WNXVN7l0ou-17" value="" style="endArrow=none;html=1;rounded=0;" edge="1" parent="1" source="EYOzeWgw2-WNXVN7l0ou-5" target="EYOzeWgw2-WNXVN7l0ou-7">
          <mxGeometry width="50" height="50" relative="1" as="geometry">
            <mxPoint x="185.60660171779818" y="214.39339828220182" as="sourcePoint" />
            <mxPoint x="244.39339828220182" y="155.60660171779818" as="targetPoint" />
          </mxGeometry>
        </mxCell>
        <mxCell id="EYOzeWgw2-WNXVN7l0ou-18" value="" style="endArrow=none;html=1;rounded=0;entryX=1;entryY=1;entryDx=0;entryDy=0;" edge="1" parent="1" source="EYOzeWgw2-WNXVN7l0ou-6" target="EYOzeWgw2-WNXVN7l0ou-5">
          <mxGeometry width="50" height="50" relative="1" as="geometry">
            <mxPoint x="195.60660171779818" y="224.39339828220182" as="sourcePoint" />
            <mxPoint x="254.39339828220182" y="165.60660171779818" as="targetPoint" />
          </mxGeometry>
        </mxCell>
        <mxCell id="EYOzeWgw2-WNXVN7l0ou-19" value="" style="endArrow=none;html=1;rounded=0;" edge="1" parent="1" source="EYOzeWgw2-WNXVN7l0ou-7" target="EYOzeWgw2-WNXVN7l0ou-6">
          <mxGeometry width="50" height="50" relative="1" as="geometry">
            <mxPoint x="205.60660171779818" y="234.39339828220182" as="sourcePoint" />
            <mxPoint x="264.3933982822018" y="175.60660171779818" as="targetPoint" />
          </mxGeometry>
        </mxCell>
        <mxCell id="EYOzeWgw2-WNXVN7l0ou-20" value="" style="endArrow=none;html=1;rounded=0;entryX=0.5;entryY=1;entryDx=0;entryDy=0;exitX=0.5;exitY=0;exitDx=0;exitDy=0;" edge="1" parent="1" source="EYOzeWgw2-WNXVN7l0ou-6" target="EYOzeWgw2-WNXVN7l0ou-8">
          <mxGeometry width="50" height="50" relative="1" as="geometry">
            <mxPoint x="215.60660171779818" y="244.39339828220182" as="sourcePoint" />
            <mxPoint x="274.3933982822018" y="185.60660171779818" as="targetPoint" />
          </mxGeometry>
        </mxCell>
        <mxCell id="EYOzeWgw2-WNXVN7l0ou-21" value="" style="endArrow=none;html=1;rounded=0;" edge="1" parent="1" source="EYOzeWgw2-WNXVN7l0ou-1" target="EYOzeWgw2-WNXVN7l0ou-9">
          <mxGeometry width="50" height="50" relative="1" as="geometry">
            <mxPoint x="225.60660171779818" y="254.39339828220182" as="sourcePoint" />
            <mxPoint x="284.3933982822018" y="195.60660171779818" as="targetPoint" />
            <Array as="points">
              <mxPoint x="270" y="280" />
            </Array>
          </mxGeometry>
        </mxCell>
        <mxCell id="EYOzeWgw2-WNXVN7l0ou-22" value="" style="endArrow=none;html=1;rounded=0;" edge="1" parent="1" source="EYOzeWgw2-WNXVN7l0ou-11" target="EYOzeWgw2-WNXVN7l0ou-7">
          <mxGeometry width="50" height="50" relative="1" as="geometry">
            <mxPoint x="235.60660171779818" y="264.3933982822018" as="sourcePoint" />
            <mxPoint x="294.3933982822018" y="205.60660171779818" as="targetPoint" />
          </mxGeometry>
        </mxCell>
        <mxCell id="EYOzeWgw2-WNXVN7l0ou-23" value="" style="endArrow=none;html=1;rounded=0;exitX=0.5;exitY=0;exitDx=0;exitDy=0;" edge="1" parent="1" source="EYOzeWgw2-WNXVN7l0ou-9" target="EYOzeWgw2-WNXVN7l0ou-7">
          <mxGeometry width="50" height="50" relative="1" as="geometry">
            <mxPoint x="245.60660171779818" y="274.3933982822018" as="sourcePoint" />
            <mxPoint x="304.3933982822018" y="215.60660171779818" as="targetPoint" />
          </mxGeometry>
        </mxCell>
        <mxCell id="EYOzeWgw2-WNXVN7l0ou-24" value="" style="endArrow=none;html=1;rounded=0;" edge="1" parent="1" source="EYOzeWgw2-WNXVN7l0ou-10" target="EYOzeWgw2-WNXVN7l0ou-11">
          <mxGeometry width="50" height="50" relative="1" as="geometry">
            <mxPoint x="255.60660171779818" y="284.3933982822018" as="sourcePoint" />
            <mxPoint x="314.3933982822018" y="225.60660171779818" as="targetPoint" />
          </mxGeometry>
        </mxCell>
        <mxCell id="EYOzeWgw2-WNXVN7l0ou-25" value="" style="endArrow=none;html=1;rounded=0;" edge="1" parent="1" source="EYOzeWgw2-WNXVN7l0ou-10" target="EYOzeWgw2-WNXVN7l0ou-6">
          <mxGeometry width="50" height="50" relative="1" as="geometry">
            <mxPoint x="265.6066017177982" y="294.3933982822018" as="sourcePoint" />
            <mxPoint x="324.3933982822018" y="235.60660171779818" as="targetPoint" />
          </mxGeometry>
        </mxCell>
        <mxCell id="EYOzeWgw2-WNXVN7l0ou-26" value="" style="endArrow=none;html=1;rounded=0;exitX=1;exitY=1;exitDx=0;exitDy=0;" edge="1" parent="1" source="EYOzeWgw2-WNXVN7l0ou-6" target="EYOzeWgw2-WNXVN7l0ou-11">
          <mxGeometry width="50" height="50" relative="1" as="geometry">
            <mxPoint x="275.6066017177982" y="304.3933982822018" as="sourcePoint" />
            <mxPoint x="334.3933982822018" y="245.60660171779818" as="targetPoint" />
          </mxGeometry>
        </mxCell>
        <mxCell id="EYOzeWgw2-WNXVN7l0ou-27" value="" style="endArrow=none;html=1;rounded=0;entryX=0.5;entryY=1;entryDx=0;entryDy=0;" edge="1" parent="1" source="EYOzeWgw2-WNXVN7l0ou-3" target="EYOzeWgw2-WNXVN7l0ou-5">
          <mxGeometry width="50" height="50" relative="1" as="geometry">
            <mxPoint x="285.6066017177982" y="314.3933982822018" as="sourcePoint" />
            <mxPoint x="344.3933982822018" y="255.60660171779818" as="targetPoint" />
          </mxGeometry>
        </mxCell>
        <mxCell id="EYOzeWgw2-WNXVN7l0ou-28" value="" style="endArrow=none;html=1;rounded=0;entryX=0;entryY=0;entryDx=0;entryDy=0;" edge="1" parent="1" source="EYOzeWgw2-WNXVN7l0ou-2" target="EYOzeWgw2-WNXVN7l0ou-3">
          <mxGeometry width="50" height="50" relative="1" as="geometry">
            <mxPoint x="295.6066017177982" y="324.3933982822018" as="sourcePoint" />
            <mxPoint x="215" y="160" as="targetPoint" />
          </mxGeometry>
        </mxCell>
        <mxCell id="EYOzeWgw2-WNXVN7l0ou-29" value="" style="endArrow=none;html=1;rounded=0;" edge="1" parent="1" source="EYOzeWgw2-WNXVN7l0ou-4" target="EYOzeWgw2-WNXVN7l0ou-3">
          <mxGeometry width="50" height="50" relative="1" as="geometry">
            <mxPoint x="306" y="280" as="sourcePoint" />
            <mxPoint x="364.3933982822018" y="275.6066017177982" as="targetPoint" />
          </mxGeometry>
        </mxCell>
        <mxCell id="EYOzeWgw2-WNXVN7l0ou-30" value="" style="endArrow=none;html=1;rounded=0;" edge="1" parent="1" source="EYOzeWgw2-WNXVN7l0ou-4" target="EYOzeWgw2-WNXVN7l0ou-10">
          <mxGeometry width="50" height="50" relative="1" as="geometry">
            <mxPoint x="315.6066017177982" y="344.3933982822018" as="sourcePoint" />
            <mxPoint x="374.3933982822018" y="285.6066017177982" as="targetPoint" />
          </mxGeometry>
        </mxCell>
        <mxCell id="EYOzeWgw2-WNXVN7l0ou-31" value="" style="endArrow=none;html=1;rounded=0;" edge="1" parent="1" source="EYOzeWgw2-WNXVN7l0ou-10" target="EYOzeWgw2-WNXVN7l0ou-3">
          <mxGeometry width="50" height="50" relative="1" as="geometry">
            <mxPoint x="325.6066017177982" y="354.3933982822018" as="sourcePoint" />
            <mxPoint x="384.3933982822018" y="295.6066017177982" as="targetPoint" />
          </mxGeometry>
        </mxCell>
        <mxCell id="EYOzeWgw2-WNXVN7l0ou-32" value="" style="endArrow=none;html=1;rounded=0;" edge="1" parent="1" source="EYOzeWgw2-WNXVN7l0ou-2" target="EYOzeWgw2-WNXVN7l0ou-4">
          <mxGeometry width="50" height="50" relative="1" as="geometry">
            <mxPoint x="335.6066017177982" y="364.3933982822018" as="sourcePoint" />
            <mxPoint x="394.3933982822018" y="305.6066017177982" as="targetPoint" />
          </mxGeometry>
        </mxCell>
        <mxCell id="EYOzeWgw2-WNXVN7l0ou-33" value="" style="endArrow=none;html=1;rounded=0;" edge="1" parent="1" source="EYOzeWgw2-WNXVN7l0ou-9" target="EYOzeWgw2-WNXVN7l0ou-11">
          <mxGeometry width="50" height="50" relative="1" as="geometry">
            <mxPoint x="345.6066017177982" y="374.3933982822018" as="sourcePoint" />
            <mxPoint x="404.3933982822018" y="315.6066017177982" as="targetPoint" />
          </mxGeometry>
        </mxCell>
        <mxCell id="EYOzeWgw2-WNXVN7l0ou-34" value="3" style="ellipse;whiteSpace=wrap;html=1;aspect=fixed;" vertex="1" parent="1">
          <mxGeometry x="300" y="480" width="30" height="30" as="geometry" />
        </mxCell>
        <mxCell id="EYOzeWgw2-WNXVN7l0ou-35" value="5" style="ellipse;whiteSpace=wrap;html=1;aspect=fixed;" vertex="1" parent="1">
          <mxGeometry x="320" y="410" width="30" height="30" as="geometry" />
        </mxCell>
        <mxCell id="EYOzeWgw2-WNXVN7l0ou-36" value="8" style="ellipse;whiteSpace=wrap;html=1;aspect=fixed;" vertex="1" parent="1">
          <mxGeometry x="410" y="470" width="30" height="30" as="geometry" />
        </mxCell>
        <mxCell id="EYOzeWgw2-WNXVN7l0ou-37" value="9" style="ellipse;whiteSpace=wrap;html=1;aspect=fixed;" vertex="1" parent="1">
          <mxGeometry x="490" y="410" width="30" height="30" as="geometry" />
        </mxCell>
        <mxCell id="EYOzeWgw2-WNXVN7l0ou-38" value="7" style="ellipse;whiteSpace=wrap;html=1;aspect=fixed;" vertex="1" parent="1">
          <mxGeometry x="410" y="350" width="30" height="30" as="geometry" />
        </mxCell>
        <mxCell id="EYOzeWgw2-WNXVN7l0ou-39" value="6" style="ellipse;whiteSpace=wrap;html=1;aspect=fixed;" vertex="1" parent="1">
          <mxGeometry x="360" y="530" width="30" height="30" as="geometry" />
        </mxCell>
        <mxCell id="EYOzeWgw2-WNXVN7l0ou-40" value="10" style="ellipse;whiteSpace=wrap;html=1;aspect=fixed;" vertex="1" parent="1">
          <mxGeometry x="490" y="530" width="30" height="30" as="geometry" />
        </mxCell>
        <mxCell id="EYOzeWgw2-WNXVN7l0ou-41" value="" style="endArrow=none;html=1;rounded=0;" edge="1" parent="1" source="EYOzeWgw2-WNXVN7l0ou-35" target="EYOzeWgw2-WNXVN7l0ou-38">
          <mxGeometry width="50" height="50" relative="1" as="geometry">
            <mxPoint x="410" y="410" as="sourcePoint" />
            <mxPoint x="224.39339828220182" y="455.6066017177982" as="targetPoint" />
          </mxGeometry>
        </mxCell>
        <mxCell id="EYOzeWgw2-WNXVN7l0ou-42" value="" style="endArrow=none;html=1;rounded=0;" edge="1" parent="1" source="EYOzeWgw2-WNXVN7l0ou-37" target="EYOzeWgw2-WNXVN7l0ou-38">
          <mxGeometry width="50" height="50" relative="1" as="geometry">
            <mxPoint x="175.60660171779818" y="524.3933982822018" as="sourcePoint" />
            <mxPoint x="234.39339828220182" y="465.6066017177982" as="targetPoint" />
          </mxGeometry>
        </mxCell>
        <mxCell id="EYOzeWgw2-WNXVN7l0ou-43" value="" style="endArrow=none;html=1;rounded=0;" edge="1" parent="1" source="EYOzeWgw2-WNXVN7l0ou-35" target="EYOzeWgw2-WNXVN7l0ou-37">
          <mxGeometry width="50" height="50" relative="1" as="geometry">
            <mxPoint x="185.60660171779818" y="534.3933982822018" as="sourcePoint" />
            <mxPoint x="244.39339828220182" y="475.6066017177982" as="targetPoint" />
          </mxGeometry>
        </mxCell>
        <mxCell id="EYOzeWgw2-WNXVN7l0ou-44" value="" style="endArrow=none;html=1;rounded=0;entryX=1;entryY=1;entryDx=0;entryDy=0;" edge="1" parent="1" source="EYOzeWgw2-WNXVN7l0ou-36" target="EYOzeWgw2-WNXVN7l0ou-35">
          <mxGeometry width="50" height="50" relative="1" as="geometry">
            <mxPoint x="195.60660171779818" y="544.3933982822018" as="sourcePoint" />
            <mxPoint x="254.39339828220182" y="485.6066017177982" as="targetPoint" />
          </mxGeometry>
        </mxCell>
        <mxCell id="EYOzeWgw2-WNXVN7l0ou-45" value="" style="endArrow=none;html=1;rounded=0;" edge="1" parent="1" source="EYOzeWgw2-WNXVN7l0ou-37" target="EYOzeWgw2-WNXVN7l0ou-36">
          <mxGeometry width="50" height="50" relative="1" as="geometry">
            <mxPoint x="205.60660171779818" y="554.3933982822018" as="sourcePoint" />
            <mxPoint x="264.3933982822018" y="495.6066017177982" as="targetPoint" />
          </mxGeometry>
        </mxCell>
        <mxCell id="EYOzeWgw2-WNXVN7l0ou-46" value="" style="endArrow=none;html=1;rounded=0;entryX=0.5;entryY=1;entryDx=0;entryDy=0;exitX=0.5;exitY=0;exitDx=0;exitDy=0;" edge="1" parent="1" source="EYOzeWgw2-WNXVN7l0ou-36" target="EYOzeWgw2-WNXVN7l0ou-38">
          <mxGeometry width="50" height="50" relative="1" as="geometry">
            <mxPoint x="215.60660171779818" y="564.3933982822018" as="sourcePoint" />
            <mxPoint x="274.3933982822018" y="505.6066017177982" as="targetPoint" />
          </mxGeometry>
        </mxCell>
        <mxCell id="EYOzeWgw2-WNXVN7l0ou-47" value="" style="endArrow=none;html=1;rounded=0;" edge="1" parent="1" source="EYOzeWgw2-WNXVN7l0ou-40" target="EYOzeWgw2-WNXVN7l0ou-37">
          <mxGeometry width="50" height="50" relative="1" as="geometry">
            <mxPoint x="235.60660171779818" y="584.3933982822018" as="sourcePoint" />
            <mxPoint x="294.3933982822018" y="525.6066017177982" as="targetPoint" />
          </mxGeometry>
        </mxCell>
        <mxCell id="EYOzeWgw2-WNXVN7l0ou-48" value="" style="endArrow=none;html=1;rounded=0;" edge="1" parent="1" source="EYOzeWgw2-WNXVN7l0ou-39" target="EYOzeWgw2-WNXVN7l0ou-40">
          <mxGeometry width="50" height="50" relative="1" as="geometry">
            <mxPoint x="255.60660171779818" y="604.3933982822018" as="sourcePoint" />
            <mxPoint x="314.3933982822018" y="545.6066017177982" as="targetPoint" />
          </mxGeometry>
        </mxCell>
        <mxCell id="EYOzeWgw2-WNXVN7l0ou-49" value="" style="endArrow=none;html=1;rounded=0;" edge="1" parent="1" source="EYOzeWgw2-WNXVN7l0ou-39" target="EYOzeWgw2-WNXVN7l0ou-36">
          <mxGeometry width="50" height="50" relative="1" as="geometry">
            <mxPoint x="265.6066017177982" y="614.3933982822018" as="sourcePoint" />
            <mxPoint x="324.3933982822018" y="555.6066017177982" as="targetPoint" />
          </mxGeometry>
        </mxCell>
        <mxCell id="EYOzeWgw2-WNXVN7l0ou-50" value="" style="endArrow=none;html=1;rounded=0;exitX=1;exitY=1;exitDx=0;exitDy=0;" edge="1" parent="1" source="EYOzeWgw2-WNXVN7l0ou-36" target="EYOzeWgw2-WNXVN7l0ou-40">
          <mxGeometry width="50" height="50" relative="1" as="geometry">
            <mxPoint x="275.6066017177982" y="624.3933982822018" as="sourcePoint" />
            <mxPoint x="334.3933982822018" y="565.6066017177982" as="targetPoint" />
          </mxGeometry>
        </mxCell>
        <mxCell id="EYOzeWgw2-WNXVN7l0ou-51" value="" style="endArrow=none;html=1;rounded=0;entryX=0.5;entryY=1;entryDx=0;entryDy=0;" edge="1" parent="1" source="EYOzeWgw2-WNXVN7l0ou-34" target="EYOzeWgw2-WNXVN7l0ou-35">
          <mxGeometry width="50" height="50" relative="1" as="geometry">
            <mxPoint x="285.6066017177982" y="634.3933982822018" as="sourcePoint" />
            <mxPoint x="344.3933982822018" y="575.6066017177982" as="targetPoint" />
          </mxGeometry>
        </mxCell>
        <mxCell id="EYOzeWgw2-WNXVN7l0ou-52" value="" style="endArrow=none;html=1;rounded=0;" edge="1" parent="1" source="EYOzeWgw2-WNXVN7l0ou-39" target="EYOzeWgw2-WNXVN7l0ou-34">
          <mxGeometry width="50" height="50" relative="1" as="geometry">
            <mxPoint x="325.6066017177982" y="674.3933982822018" as="sourcePoint" />
            <mxPoint x="384.3933982822018" y="615.6066017177982" as="targetPoint" />
          </mxGeometry>
        </mxCell>
        <mxCell id="EYOzeWgw2-WNXVN7l0ou-53" value="2, 11" style="ellipse;whiteSpace=wrap;html=1;aspect=fixed;" vertex="1" parent="1">
          <mxGeometry x="170" y="370" width="30" height="30" as="geometry" />
        </mxCell>
        <mxCell id="EYOzeWgw2-WNXVN7l0ou-55" value="4, 11" style="ellipse;whiteSpace=wrap;html=1;aspect=fixed;" vertex="1" parent="1">
          <mxGeometry x="170" y="500" width="30" height="30" as="geometry" />
        </mxCell>
        <mxCell id="EYOzeWgw2-WNXVN7l0ou-57" value="" style="endArrow=none;html=1;rounded=0;" edge="1" parent="1" source="EYOzeWgw2-WNXVN7l0ou-53" target="EYOzeWgw2-WNXVN7l0ou-37">
          <mxGeometry width="50" height="50" relative="1" as="geometry">
            <mxPoint x="390" y="420" as="sourcePoint" />
            <mxPoint x="440" y="370" as="targetPoint" />
            <Array as="points">
              <mxPoint x="470" y="340" />
            </Array>
          </mxGeometry>
        </mxCell>
        <mxCell id="EYOzeWgw2-WNXVN7l0ou-59" value="" style="endArrow=none;html=1;rounded=0;" edge="1" parent="1" source="EYOzeWgw2-WNXVN7l0ou-40" target="EYOzeWgw2-WNXVN7l0ou-55">
          <mxGeometry width="50" height="50" relative="1" as="geometry">
            <mxPoint x="390" y="420" as="sourcePoint" />
            <mxPoint x="440" y="370" as="targetPoint" />
            <Array as="points">
              <mxPoint x="450" y="590" />
              <mxPoint x="310" y="590" />
            </Array>
          </mxGeometry>
        </mxCell>
        <mxCell id="EYOzeWgw2-WNXVN7l0ou-60" value="" style="endArrow=none;html=1;rounded=0;" edge="1" parent="1" source="EYOzeWgw2-WNXVN7l0ou-53" target="EYOzeWgw2-WNXVN7l0ou-55">
          <mxGeometry width="50" height="50" relative="1" as="geometry">
            <mxPoint x="390" y="420" as="sourcePoint" />
            <mxPoint x="440" y="370" as="targetPoint" />
          </mxGeometry>
        </mxCell>
        <mxCell id="EYOzeWgw2-WNXVN7l0ou-62" value="" style="endArrow=none;html=1;rounded=0;" edge="1" parent="1" source="EYOzeWgw2-WNXVN7l0ou-37" target="EYOzeWgw2-WNXVN7l0ou-55">
          <mxGeometry width="50" height="50" relative="1" as="geometry">
            <mxPoint x="390" y="420" as="sourcePoint" />
            <mxPoint x="440" y="370" as="targetPoint" />
          </mxGeometry>
        </mxCell>
        <mxCell id="EYOzeWgw2-WNXVN7l0ou-64" value="" style="endArrow=none;html=1;rounded=0;" edge="1" parent="1" source="EYOzeWgw2-WNXVN7l0ou-53" target="EYOzeWgw2-WNXVN7l0ou-40">
          <mxGeometry width="50" height="50" relative="1" as="geometry">
            <mxPoint x="390" y="420" as="sourcePoint" />
            <mxPoint x="440" y="370" as="targetPoint" />
            <Array as="points">
              <mxPoint x="320" y="570" />
            </Array>
          </mxGeometry>
        </mxCell>
        <mxCell id="EYOzeWgw2-WNXVN7l0ou-65" value="" style="endArrow=none;html=1;rounded=0;" edge="1" parent="1" source="EYOzeWgw2-WNXVN7l0ou-39" target="EYOzeWgw2-WNXVN7l0ou-55">
          <mxGeometry width="50" height="50" relative="1" as="geometry">
            <mxPoint x="390" y="420" as="sourcePoint" />
            <mxPoint x="440" y="370" as="targetPoint" />
          </mxGeometry>
        </mxCell>
        <mxCell id="EYOzeWgw2-WNXVN7l0ou-66" value="" style="endArrow=none;html=1;rounded=0;entryX=0;entryY=0;entryDx=0;entryDy=0;" edge="1" parent="1" source="EYOzeWgw2-WNXVN7l0ou-53" target="EYOzeWgw2-WNXVN7l0ou-34">
          <mxGeometry width="50" height="50" relative="1" as="geometry">
            <mxPoint x="390" y="420" as="sourcePoint" />
            <mxPoint x="440" y="370" as="targetPoint" />
          </mxGeometry>
        </mxCell>
        <mxCell id="EYOzeWgw2-WNXVN7l0ou-67" value="" style="endArrow=none;html=1;rounded=0;" edge="1" parent="1" source="EYOzeWgw2-WNXVN7l0ou-55" target="EYOzeWgw2-WNXVN7l0ou-34">
          <mxGeometry width="50" height="50" relative="1" as="geometry">
            <mxPoint x="390" y="420" as="sourcePoint" />
            <mxPoint x="440" y="370" as="targetPoint" />
          </mxGeometry>
        </mxCell>
        <mxCell id="EYOzeWgw2-WNXVN7l0ou-68" value="" style="endArrow=none;html=1;rounded=0;" edge="1" parent="1" source="EYOzeWgw2-WNXVN7l0ou-53" target="EYOzeWgw2-WNXVN7l0ou-35">
          <mxGeometry width="50" height="50" relative="1" as="geometry">
            <mxPoint x="390" y="420" as="sourcePoint" />
            <mxPoint x="440" y="370" as="targetPoint" />
          </mxGeometry>
        </mxCell>
        <mxCell id="EYOzeWgw2-WNXVN7l0ou-69" value="2, 11" style="ellipse;whiteSpace=wrap;html=1;aspect=fixed;" vertex="1" parent="1">
          <mxGeometry x="180" y="630" width="30" height="30" as="geometry" />
        </mxCell>
        <mxCell id="EYOzeWgw2-WNXVN7l0ou-70" value="4, 11" style="ellipse;whiteSpace=wrap;html=1;aspect=fixed;" vertex="1" parent="1">
          <mxGeometry x="180" y="760" width="30" height="30" as="geometry" />
        </mxCell>
        <mxCell id="EYOzeWgw2-WNXVN7l0ou-71" value="" style="endArrow=none;html=1;rounded=0;" edge="1" parent="1" source="EYOzeWgw2-WNXVN7l0ou-69" target="EYOzeWgw2-WNXVN7l0ou-70">
          <mxGeometry width="50" height="50" relative="1" as="geometry">
            <mxPoint x="400" y="680" as="sourcePoint" />
            <mxPoint x="450" y="630" as="targetPoint" />
          </mxGeometry>
        </mxCell>
        <mxCell id="EYOzeWgw2-WNXVN7l0ou-72" value="3" style="ellipse;whiteSpace=wrap;html=1;aspect=fixed;" vertex="1" parent="1">
          <mxGeometry x="270" y="700" width="30" height="30" as="geometry" />
        </mxCell>
        <mxCell id="EYOzeWgw2-WNXVN7l0ou-73" value="6" style="ellipse;whiteSpace=wrap;html=1;aspect=fixed;" vertex="1" parent="1">
          <mxGeometry x="360" y="730" width="30" height="30" as="geometry" />
        </mxCell>
        <mxCell id="EYOzeWgw2-WNXVN7l0ou-75" value="10" style="ellipse;whiteSpace=wrap;html=1;aspect=fixed;" vertex="1" parent="1">
          <mxGeometry x="490" y="760" width="30" height="30" as="geometry" />
        </mxCell>
        <mxCell id="EYOzeWgw2-WNXVN7l0ou-77" value="" style="endArrow=none;html=1;rounded=0;entryX=0;entryY=0;entryDx=0;entryDy=0;" edge="1" parent="1" source="EYOzeWgw2-WNXVN7l0ou-69" target="EYOzeWgw2-WNXVN7l0ou-72">
          <mxGeometry width="50" height="50" relative="1" as="geometry">
            <mxPoint x="400" y="580" as="sourcePoint" />
            <mxPoint x="450" y="530" as="targetPoint" />
          </mxGeometry>
        </mxCell>
        <mxCell id="EYOzeWgw2-WNXVN7l0ou-78" value="" style="endArrow=none;html=1;rounded=0;" edge="1" parent="1" source="EYOzeWgw2-WNXVN7l0ou-70" target="EYOzeWgw2-WNXVN7l0ou-72">
          <mxGeometry width="50" height="50" relative="1" as="geometry">
            <mxPoint x="217.0182308542437" y="663.9756407645618" as="sourcePoint" />
            <mxPoint x="284" y="750" as="targetPoint" />
          </mxGeometry>
        </mxCell>
        <mxCell id="EYOzeWgw2-WNXVN7l0ou-79" value="" style="endArrow=none;html=1;rounded=0;" edge="1" parent="1" source="EYOzeWgw2-WNXVN7l0ou-70" target="EYOzeWgw2-WNXVN7l0ou-75">
          <mxGeometry width="50" height="50" relative="1" as="geometry">
            <mxPoint x="227.0182308542437" y="673.9756407645618" as="sourcePoint" />
            <mxPoint x="294.3933982822018" y="724.3933982822018" as="targetPoint" />
          </mxGeometry>
        </mxCell>
        <mxCell id="EYOzeWgw2-WNXVN7l0ou-80" value="" style="endArrow=none;html=1;rounded=0;" edge="1" parent="1" source="EYOzeWgw2-WNXVN7l0ou-73" target="EYOzeWgw2-WNXVN7l0ou-75">
          <mxGeometry width="50" height="50" relative="1" as="geometry">
            <mxPoint x="470" y="710" as="sourcePoint" />
            <mxPoint x="304.3933982822018" y="734.3933982822018" as="targetPoint" />
          </mxGeometry>
        </mxCell>
        <mxCell id="EYOzeWgw2-WNXVN7l0ou-81" value="" style="endArrow=none;html=1;rounded=0;" edge="1" parent="1" source="EYOzeWgw2-WNXVN7l0ou-69" target="EYOzeWgw2-WNXVN7l0ou-75">
          <mxGeometry width="50" height="50" relative="1" as="geometry">
            <mxPoint x="247.0182308542437" y="693.9756407645618" as="sourcePoint" />
            <mxPoint x="314.3933982822018" y="744.3933982822018" as="targetPoint" />
          </mxGeometry>
        </mxCell>
        <mxCell id="EYOzeWgw2-WNXVN7l0ou-82" value="" style="endArrow=none;html=1;rounded=0;" edge="1" parent="1" source="EYOzeWgw2-WNXVN7l0ou-70" target="EYOzeWgw2-WNXVN7l0ou-73">
          <mxGeometry width="50" height="50" relative="1" as="geometry">
            <mxPoint x="257.0182308542437" y="703.9756407645618" as="sourcePoint" />
            <mxPoint x="324.3933982822018" y="754.3933982822018" as="targetPoint" />
          </mxGeometry>
        </mxCell>
        <mxCell id="EYOzeWgw2-WNXVN7l0ou-87" value="6" style="ellipse;whiteSpace=wrap;html=1;aspect=fixed;" vertex="1" parent="1">
          <mxGeometry x="360" y="890" width="30" height="30" as="geometry" />
        </mxCell>
        <mxCell id="EYOzeWgw2-WNXVN7l0ou-88" value="10" style="ellipse;whiteSpace=wrap;html=1;aspect=fixed;" vertex="1" parent="1">
          <mxGeometry x="490" y="920" width="30" height="30" as="geometry" />
        </mxCell>
        <mxCell id="EYOzeWgw2-WNXVN7l0ou-89" value="" style="endArrow=none;html=1;rounded=0;" edge="1" parent="1" source="EYOzeWgw2-WNXVN7l0ou-87" target="EYOzeWgw2-WNXVN7l0ou-88">
          <mxGeometry width="50" height="50" relative="1" as="geometry">
            <mxPoint x="470" y="870" as="sourcePoint" />
            <mxPoint x="304.3933982822018" y="894.3933982822018" as="targetPoint" />
          </mxGeometry>
        </mxCell>
      </root>
    </mxGraphModel>
  </diagram>
</mxfile>
